<?xml version="1.0"?>
<svg xmlns="http://www.w3.org/2000/svg" xmlns:xlink="http://www.w3.org/1999/xlink" xmlns:svgjs="http://svgjs.com/svgjs" version="1.1" width="512" height="512" x="0" y="0" viewBox="0 0 501 501" style="enable-background:new 0 0 512 512" xml:space="preserve" class=""><g><path xmlns="http://www.w3.org/2000/svg" d="m501 250.5c0 135.31-109.69 245-245 245s-245-109.69-245-245 109.69-245 245-245 245 109.69 245 245z" fill="#2a7053" data-original="#01cffa" style="" class=""/><path xmlns="http://www.w3.org/2000/svg" d="m440.311 129.162c-4.783 2.761-10.899 1.123-13.66-3.661-2.761-4.783-1.123-10.898 3.66-13.66l19.487-11.25c4.097 5.289 7.983 10.75 11.644 16.372zm31.272 4.839-28.546 16.481c-4.783 2.761-6.422 8.877-3.66 13.66 2.761 4.783 8.877 6.422 13.66 3.66l27.36-15.796c-2.698-6.137-5.64-12.143-8.814-18.005zm16.235 37.015-17.507 10.108c-4.783 2.761-6.422 8.877-3.66 13.66s8.877 6.422 13.66 3.66l13.348-7.707c-1.676-6.687-3.627-13.265-5.841-19.721z" fill="#ffffff" data-original="#c7eefd" style="" class=""/><path xmlns="http://www.w3.org/2000/svg" d="m237.56 206.967 129.837-74.962c11.749-6.783 26.652-4.999 36.283 4.555 9.409 9.334 17.746 20.059 24.692 32.089 6.945 12.03 12.065 24.613 15.444 37.428 3.459 13.118-2.448 26.916-14.196 33.699l-129.837 74.962c-32.969 19.035-73.508 19.376-106.792.898-6.027-3.346-9.72-9.742-9.604-16.635.64-38.063 21.204-73 54.173-92.034z" fill="#01c946" data-original="#017bad" style="" class=""/><path xmlns="http://www.w3.org/2000/svg" d="m190.437 262.33 214.917-124.083c8.725 8.933 16.487 19.091 23.018 30.402 6.945 12.03 12.065 24.613 15.444 37.428 3.459 13.118-2.448 26.916-14.196 33.699l-129.837 74.962c-32.969 19.035-73.508 19.376-106.792.898-6.027-3.346-9.72-9.742-9.604-16.635.214-12.732 2.658-25.115 7.05-36.671z" fill="#02a752" data-original="#0377ee" style="" class=""/><path xmlns="http://www.w3.org/2000/svg" d="m489.069 349.126-81.303 46.94c-23.187 13.387-51.534 14.287-75.524 2.398l-54.844-27.18-90.329 52.151c-52.986 30.592-118.137 31.14-171.63 1.444-9.687-5.377-15.622-15.657-15.435-26.734 1.03-61.174 34.08-117.323 87.066-147.915l90.329-52.151 3.883-61.086c1.699-26.721 16.652-50.82 39.839-64.207l81.303-46.94c5.754-3.322 13.087-.213 14.701 6.232l23.11 92.315c20.837 17.703 39.042 39.222 53.497 64.257 14.454 25.035 23.987 51.561 28.9 78.458l68.392 66.172c4.774 4.619 3.799 12.524-1.955 15.846z" fill="#00183a" data-original="#003278" style="" class=""/><path xmlns="http://www.w3.org/2000/svg" d="m122.729 287.378 241.58-139.476c10.97 12.306 20.855 25.909 29.422 40.748 15.046 26.06 24.76 53.736 29.481 81.763 1.544 9.166-2.829 18.319-10.879 22.967l-215.42 124.372c-36.036 20.805-82.161 8.307-102.734-27.945-20.411-35.967-7.264-81.752 28.55-102.429z" fill="#002a60" data-original="#0055c7" style="" class=""/><path xmlns="http://www.w3.org/2000/svg" d="m277.934 285.789c4.254-10.921 3.693-23.604-2.623-34.543l-5-8.66c-11.046-19.132-35.509-25.687-54.641-14.641l-25.981 15c-19.132 11.045-25.687 35.509-14.641 54.641l5 8.66c6.316 10.939 17.019 17.767 28.604 19.543l9.387 16.258c2.762 4.783 8.877 6.421 13.66 3.66s6.422-8.877 3.66-13.66l-5.155-8.929c1.521-.642 3.019-1.385 4.485-2.231l4.33-2.5 5 8.66c2.761 4.783 8.877 6.421 13.66 3.66s6.422-8.877 3.66-13.66l-5-8.66 4.33-2.5c1.467-.847 2.859-1.773 4.175-2.769l5.155 8.929c2.761 4.783 8.877 6.421 13.66 3.66s6.422-8.877 3.66-13.66zm-59.977 10.117-8.66 5c-4.783 2.762-10.899 1.123-13.66-3.66l-5-8.66c-2.761-4.783-1.123-10.899 3.66-13.661l8.66-5c4.783-2.761 10.899-1.123 13.66 3.661l5 8.66c2.762 4.783 1.123 10.898-3.66 13.66zm29.053 6.321-8.66 5c-2.392 1.381-5.449.562-6.83-1.83s-.562-5.449 1.83-6.83l8.66-5c2.392-1.381 5.449-.562 6.83 1.83 1.381 2.391.561 5.449-1.83 6.83zm9.052-28.321-8.66 5c-4.783 2.762-10.899 1.123-13.66-3.66l-5-8.66c-2.761-4.783-1.123-10.899 3.66-13.661l8.66-5c4.783-2.761 10.899-1.123 13.66 3.661l5 8.66c2.762 4.783 1.123 10.898-3.66 13.66zm79.895-47.219-.08 56.447c-.005 3.7-2.019 6.927-5.007 8.652-1.473.851-3.183 1.336-5.007 1.334-5.523-.008-9.994-4.492-9.986-10.014l.072-50.538-42.794-23.637c-4.834-2.67-6.589-8.754-3.918-13.589 2.67-4.833 8.753-6.589 13.589-3.918l47.967 26.495c3.19 1.763 5.17 5.123 5.164 8.768zm-144.921 144.275c-.909 1.58-2.185 2.818-3.659 3.669-2.989 1.726-6.79 1.856-9.997.011l-48.925-28.154c-3.16-1.818-5.079-5.212-5.01-8.857l1.038-54.788c.105-5.521 4.667-9.914 10.188-9.809 5.522.104 9.914 4.666 9.809 10.188l-.927 48.879 43.803 25.206c4.787 2.754 6.435 8.868 3.68 13.655z" fill="#067846" data-original="#5affb7" style="" class=""/></g></svg>
