<?xml version="1.0"?>
<svg xmlns="http://www.w3.org/2000/svg" xmlns:xlink="http://www.w3.org/1999/xlink" xmlns:svgjs="http://svgjs.com/svgjs" version="1.1" width="512" height="512" x="0" y="0" viewBox="0 0 512 512" style="enable-background:new 0 0 512 512" xml:space="preserve" class=""><g><g xmlns="http://www.w3.org/2000/svg"><path d="m234.433 78.302c-6.86 6.854 3.743 17.465 10.603 10.61 6.046-6.042 15.884-6.042 21.93 0 6.859 6.854 17.463-3.756 10.603-10.61-11.893-11.884-31.245-11.884-43.136 0z" fill="#ffffff" data-original="#000000" style="" class=""/><path d="m298.977 68.871c6.298 0 9.756-8.354 5.301-12.805-26.62-26.602-69.937-26.602-96.557 0-6.86 6.854 3.743 17.465 10.603 10.61 20.774-20.76 54.577-20.76 75.352 0 1.464 1.464 3.382 2.195 5.301 2.195z" fill="#ffffff" data-original="#000000" style="" class=""/><path d="m190.565 42.071c36.081-36.055 94.788-36.055 130.869 0 6.859 6.854 17.463-3.756 10.603-10.61-41.927-41.897-110.147-41.897-152.074 0-6.86 6.853 3.743 17.464 10.602 10.61z" fill="#ffffff" data-original="#000000" style="" class=""/><path d="m496.206 403.28v-45.596c0-28.49-14.335-53.684-36.161-68.783h14.872c14.168 0 25.695-11.527 25.695-25.754 0-14.168-11.527-25.695-25.695-25.695h-37.089l-16.273-61.409c-.022-.085-.05-.167-.072-.252-.008-.027-.015-.054-.023-.08-6.653-24.499-28.957-41.582-54.372-41.582h-161.421c-9.697 0-9.697 15 0 15h161.421c15.276 0 29.022 8.411 36.178 21.334h-294.532c7.156-12.923 20.901-21.334 36.178-21.334h21.421c9.697 0 9.697-15 0-15h-21.421c-25.413 0-47.717 17.081-54.37 41.577-.01.032-.018.064-.028.096-.022.081-.048.159-.069.24l-16.273 61.409h-36.756c-14.168 0-25.695 11.527-25.695 25.754 0 14.168 11.527 25.695 25.695 25.695h14.54c-21.827 15.1-36.162 40.293-36.162 68.783v45.596c-9.046 2.183-15.794 10.323-15.794 20.029v21.893c0 11.372 9.251 20.623 20.623 20.623h23.035v26.622c0 10.762 8.755 19.517 19.517 19.517h56.825c10.762 0 19.517-8.755 19.517-19.517v-26.622h232.967v26.622c0 10.762 8.755 19.517 19.517 19.517h56.825c10.762 0 19.517-8.755 19.517-19.517v-26.622h23.035c11.372 0 20.623-9.251 20.623-20.623v-21.893c-.001-9.706-6.749-17.846-15.795-20.028zm-392.74-217.817h305.068l24.133 91.071c-6.43-1.59-13.146-2.449-20.06-2.449h-313.214c-6.915 0-13.63.859-20.06 2.449zm371.451 66.988c5.897 0 10.695 4.798 10.695 10.754 0 5.897-4.798 10.695-10.695 10.695h-27.43l-5.684-21.45h33.114zm-448.197 10.695c0-5.897 4.798-10.695 10.695-10.695h32.781l-5.684 21.45h-27.096c-5.898-.001-10.696-4.799-10.696-10.755zm97.797 229.3c0 2.49-2.026 4.517-4.517 4.517h-56.826c-2.49 0-4.517-2.026-4.517-4.517v-26.622h65.859v26.622zm328.825 0c0 2.49-2.026 4.517-4.517 4.517h-56.825c-2.491 0-4.517-2.026-4.517-4.517v-26.622h65.859zm43.658-47.244c0 3.101-2.522 5.623-5.623 5.623h-470.754c-3.101 0-5.623-2.522-5.623-5.623v-21.893c0-3.101 2.522-5.623 5.623-5.623h371.821c9.697 0 9.697-15 0-15h-361.65v-45.002c0-37.826 30.773-68.599 68.599-68.599h313.214c37.826 0 68.599 30.773 68.599 68.599v45.002h-49.194c-9.697 0-9.697 15 0 15h59.365c3.101 0 5.623 2.522 5.623 5.623z" fill="#ffffff" data-original="#000000" style="" class=""/><path d="m100.846 314.925c-20.363 0-36.929 16.648-36.929 37.111s16.566 37.111 36.929 37.111 36.929-16.648 36.929-37.111-16.566-37.111-36.929-37.111zm0 59.222c-12.091 0-21.929-9.919-21.929-22.111s9.837-22.111 21.929-22.111 21.929 9.919 21.929 22.111-9.837 22.111-21.929 22.111z" fill="#ffffff" data-original="#000000" style="" class=""/><path d="m448.083 352.036c0-20.463-16.566-37.111-36.929-37.111s-36.929 16.648-36.929 37.111 16.566 37.111 36.929 37.111 36.929-16.648 36.929-37.111zm-36.929 22.111c-12.092 0-21.929-9.919-21.929-22.111s9.837-22.111 21.929-22.111c12.091 0 21.929 9.919 21.929 22.111s-9.838 22.111-21.929 22.111z" fill="#ffffff" data-original="#000000" style="" class=""/><path d="m337.415 331.332h-162.83c-4.142 0-7.5 3.358-7.5 7.5v34.084c0 4.142 3.358 7.5 7.5 7.5h162.829c4.142 0 7.5-3.358 7.5-7.5v-34.084c.001-4.142-3.357-7.5-7.499-7.5zm-7.5 34.085h-147.83v-19.084h147.829v19.084z" fill="#ffffff" data-original="#000000" style="" class=""/></g></g></svg>
