<?xml version="1.0"?>
<svg xmlns="http://www.w3.org/2000/svg" xmlns:xlink="http://www.w3.org/1999/xlink" xmlns:svgjs="http://svgjs.com/svgjs" version="1.1" width="512" height="512" x="0" y="0" viewBox="0 0 853.33331 853.33331" style="enable-background:new 0 0 512 512" xml:space="preserve" class=""><g><path xmlns="http://www.w3.org/2000/svg" d="m398.25-1.75c-220.917969 0-400 179.082031-400 400s179.082031 400 400 400 400-179.082031 400-400c-.25-220.808594-179.1875-399.75-400-400zm373 386.664062h-133.199219c-.644531-80.65625-18.121093-160.300781-51.304687-233.828124 19.21875-10.359376 37.570312-22.269532 54.863281-35.59375 78.9375 67.769531 125.949219 165.453124 129.640625 269.421874zm-526.210938 272.722657c44.074219-19.761719 91.59375-30.695313 139.875-32.167969v145.332031c-54.753906-5.957031-103.996093-48.214843-139.875-113.164062zm166.546876 113.148437v-145.335937c48.28125 1.484375 95.800781 12.410156 139.878906 32.175781-35.878906 64.960938-85.125 107.21875-139.878906 113.160156zm-13.335938-172.535156c-57.03125-.136719-113.421875 12.015625-165.332031 35.640625-32.710938-74.195313-49.078125-154.5625-48.003907-235.640625-1.074218-81.078125 15.292969-161.445312 48.003907-235.640625 51.910156 23.625 108.300781 35.777344 165.332031 35.640625 57.03125.136719 113.421875-12.015625 165.332031-35.640625 32.710938 74.195313 49.078125 154.5625 48.003907 235.640625 1.074218 81.078125-15.292969 161.445312-48.003907 235.640625-51.910156-23.625-108.300781-35.777344-165.332031-35.640625zm153.214844-459.382812c-44.078125 19.757812-91.597656 30.691406-139.878906 32.167968v-145.320312c54.753906 5.945312 104 48.199218 139.878906 113.152344zm-166.550782-113.152344v145.339844c-48.28125-1.484376-95.800781-12.414063-139.875-32.179688 35.878907-64.960938 85.121094-107.214844 139.875-113.160156zm235.164063 72.535156c-14.433594 10.796875-29.621094 20.539062-45.457031 29.160156-17.484375-32.847656-40.832032-62.214844-68.90625-86.65625 41.160156 12.417969 79.84375 31.871094 114.363281 57.496094zm-398.199219 29.097656c-15.824218-8.597656-31.019531-18.324218-45.453125-29.097656 34.515625-25.625 73.203125-45.078125 114.359375-57.496094-28.0625 24.421875-51.417968 53.765625-68.90625 86.59375zm-66.988281-11.855468c17.296875 13.324218 35.644531 25.234374 54.863281 35.59375-33.183594 73.527343-50.660156 153.171874-51.304687 233.828124h-133.195313c3.691406-103.96875 50.703125-201.652343 129.636719-269.421874zm-129.636719 296.09375h133.195313c.644531 80.660156 18.121093 160.300781 51.304687 233.828124-19.21875 10.359376-37.566406 22.269532-54.863281 35.59375-78.933594-67.765624-125.945313-165.453124-129.636719-269.421874zm151.171875 286.734374c14.425781-10.800781 29.617188-20.546874 45.453125-29.167968 17.488282 32.828125 40.84375 62.175781 68.90625 86.59375-41.148437-12.398438-79.84375-31.820313-114.359375-57.425782zm398.195313-29.167968c15.835937 8.621094 31.027344 18.367187 45.457031 29.167968-34.519531 25.605469-73.214844 45.027344-114.363281 57.425782 28.0625-24.417969 51.417968-53.765625 68.90625-86.59375zm66.988281 11.855468c-17.292969-13.324218-35.644531-25.234374-54.863281-35.59375 33.183594-73.527343 50.660156-153.167968 51.304687-233.828124h133.199219c-3.691406 103.96875-50.703125 201.65625-129.640625 269.421874zm0 0" fill="#ffffff" data-original="#000000" style="" class=""/><path xmlns="http://www.w3.org/2000/svg" d="m318.25 371.585938c-22.09375 0-40 17.90625-40 40 0 22.089843 17.90625 39.996093 40 39.996093 22.089844 0 40-17.90625 40-39.996093 0-22.09375-17.910156-40-40-40zm0 53.328124c-7.363281 0-13.335938-5.964843-13.335938-13.328124 0-7.367188 5.972657-13.335938 13.335938-13.335938s13.332031 5.96875 13.332031 13.335938c0 7.363281-5.96875 13.328124-13.332031 13.328124zm0 0" fill="#ffffff" data-original="#000000" style="" class=""/><path xmlns="http://www.w3.org/2000/svg" d="m478.25 371.585938c-22.089844 0-40 17.90625-40 40 0 22.089843 17.910156 39.996093 40 39.996093 22.09375 0 40-17.90625 40-39.996093 0-22.09375-17.90625-40-40-40zm0 53.328124c-7.363281 0-13.328125-5.964843-13.328125-13.328124 0-7.367188 5.964844-13.335938 13.328125-13.335938s13.335938 5.96875 13.335938 13.335938c0 7.363281-5.972657 13.328124-13.335938 13.328124zm0 0" fill="#ffffff" data-original="#000000" style="" class=""/><path xmlns="http://www.w3.org/2000/svg" d="m513.886719 269.128906c-36.90625-32.898437-86.050781-48.582031-135.195313-43.132812-65.71875 7.40625-121.480468 51.589844-143.710937 113.875-22.222657 62.285156-7.039063 131.792968 39.148437 179.125 2.53125 2.410156 4.003906 5.714844 4.121094 9.195312v3.390625c0 22.09375 17.90625 40.003907 40 40.003907h160c22.09375 0 40-17.910157 40-40.003907v-3.347656c.117188-3.5 1.601562-6.828125 4.132812-9.25 32.96875-33.78125 50.703126-79.566406 49.101563-126.738281-1.601563-47.175782-22.410156-91.652344-57.597656-123.117188zm-10.660157 231.242188c-7.375 7.410156-11.558593 17.410156-11.640624 27.863281v3.347656c0 7.367188-5.972657 13.339844-13.335938 13.339844h-13.328125v-13.339844c0-7.359375-5.972656-13.332031-13.339844-13.332031-7.359375 0-13.332031 5.972656-13.332031 13.332031v13.339844h-26.664062v-13.339844c0-7.359375-5.972657-13.332031-13.335938-13.332031s-13.335938 5.972656-13.335938 13.332031v13.339844h-26.664062v-13.339844c0-7.359375-5.972656-13.332031-13.328125-13.332031-7.371094 0-13.339844 5.972656-13.339844 13.332031v13.339844h-13.332031c-7.363281 0-13.335938-5.972656-13.335938-13.339844v-3.390625c-.109374-10.433594-4.296874-20.414062-11.664062-27.800781-39.082031-40.03125-51.941406-98.820313-33.164062-151.511719 18.78125-52.6875 65.929687-90.085937 121.515624-96.375 5.589844-.617187 11.21875-.921875 16.847657-.921875 36.070312-.109375 70.886719 13.230469 97.644531 37.414063 29.773438 26.613281 47.375 64.238281 48.738281 104.152344 1.359375 39.910156-13.652343 78.648437-41.550781 107.222656zm0 0" fill="#ffffff" data-original="#000000" style="" class=""/><path xmlns="http://www.w3.org/2000/svg" d="m384.914062 491.585938c0 7.359374-5.96875 13.328124-13.328124 13.328124-7.367188 0-13.335938-5.96875-13.335938-13.328124 0-7.367188 5.96875-13.335938 13.335938-13.335938 7.359374 0 13.328124 5.96875 13.328124 13.335938zm0 0" fill="#ffffff" data-original="#000000" style="" class=""/><path xmlns="http://www.w3.org/2000/svg" d="m438.25 491.585938c0 7.359374-5.964844 13.328124-13.335938 13.328124-7.355468 0-13.328124-5.96875-13.328124-13.328124 0-7.367188 5.972656-13.335938 13.328124-13.335938 7.371094 0 13.335938 5.96875 13.335938 13.335938zm0 0" fill="#ffffff" data-original="#000000" style="" class=""/><path xmlns="http://www.w3.org/2000/svg" d="m398.25 278.25c-27.265625.023438-53.714844 9.308594-75.007812 26.339844-3.824219 2.9375-5.753907 7.71875-5.050782 12.488281.703125 4.777344 3.925782 8.800781 8.429688 10.519531 4.511718 1.71875 9.59375.871094 13.300781-2.207031 16.511719-13.328125 37.113281-20.554687 58.328125-20.476563 7.363281 0 13.335938-5.96875 13.335938-13.328124 0-7.367188-5.972657-13.335938-13.335938-13.335938zm0 0" fill="#ffffff" data-original="#000000" style="" class=""/></g></svg>
