<?xml version="1.0"?>
<svg xmlns="http://www.w3.org/2000/svg" xmlns:xlink="http://www.w3.org/1999/xlink" xmlns:svgjs="http://svgjs.com/svgjs" version="1.1" width="512" height="512" x="0" y="0" viewBox="0 0 512 512" style="enable-background:new 0 0 512 512" xml:space="preserve"><g><g xmlns="http://www.w3.org/2000/svg"><path d="m405.395 311.025c58.782 0 106.605-47.822 106.605-106.605 0-58.782-47.823-106.604-106.605-106.604h-223.16c-4.15 0-7.515 3.364-7.515 7.515 0 4.15 3.364 7.515 7.515 7.515h223.161c50.495 0 91.575 41.081 91.575 91.575 0 50.495-41.081 91.575-91.575 91.575h-298.791c-50.495 0-91.575-41.081-91.575-91.575 0-50.495 41.081-91.575 91.575-91.575h45.571c4.15 0 7.515-3.364 7.515-7.515 0-4.15-3.365-7.515-7.515-7.515h-45.571c-58.782 0-106.605 47.823-106.605 106.605s47.823 106.604 106.605 106.604h110.07v30.572h-107.795c-4.15 0-7.515 3.364-7.515 7.515v27.499c0 20.718 16.855 37.573 37.573 37.573h70.221c4.15 0 7.515-3.365 7.515-7.515s-3.365-7.515-7.515-7.515h-70.221c-12.431 0-22.544-10.113-22.544-22.544v-19.984h279.211v19.984c0 12.431-10.113 22.544-22.544 22.544h-133.843c-4.15 0-7.515 3.365-7.515 7.515s3.365 7.515 7.515 7.515h133.843c20.718 0 37.573-16.855 37.573-37.573v-27.499c0-4.15-3.365-7.515-7.515-7.515h-107.793v-30.572zm-125.099 30.572h-48.593v-30.572h48.593z" fill="#ffffff" data-original="#000000" style=""/><path d="m222.732 204.421c0 18.344 14.924 33.268 33.268 33.268s33.268-14.924 33.268-33.268-14.924-33.268-33.268-33.268-33.268 14.923-33.268 33.268zm51.507 0c0 10.057-8.182 18.239-18.239 18.239s-18.239-8.182-18.239-18.239 8.182-18.239 18.239-18.239 18.239 8.181 18.239 18.239z" fill="#ffffff" data-original="#000000" style=""/><path d="m313.014 244.921c3.62 2.03 8.2.739 10.229-2.881 6.408-11.432 9.795-24.44 9.795-37.619 0-42.479-34.559-77.039-77.039-77.039s-77.039 34.559-77.039 77.039c0 42.479 34.559 77.038 77.039 77.038 16.312 0 31.901-5.035 45.082-14.562 3.364-2.431 4.12-7.129 1.689-10.492-2.43-3.364-7.129-4.121-10.492-1.689-10.603 7.663-23.148 11.713-36.278 11.713-34.192 0-62.009-27.817-62.009-62.009s27.817-62.009 62.009-62.009 62.009 27.817 62.009 62.009c0 10.611-2.724 21.078-7.876 30.271-2.029 3.621-.739 8.2 2.881 10.23z" fill="#ffffff" data-original="#000000" style=""/><path d="m131.632 196.906c-4.15 0-7.515 3.364-7.515 7.515s3.365 7.515 7.515 7.515h17.041c4.15 0 7.515-3.364 7.515-7.515s-3.365-7.515-7.515-7.515z" fill="#ffffff" data-original="#000000" style=""/><path d="m380.368 211.935c4.15 0 7.515-3.364 7.515-7.515s-3.365-7.515-7.515-7.515h-17.041c-4.15 0-7.515 3.364-7.515 7.515s3.365 7.515 7.515 7.515z" fill="#ffffff" data-original="#000000" style=""/><path d="m431.016 211.935c4.15 0 7.515-3.364 7.515-7.515s-3.365-7.515-7.515-7.515h-17.041c-4.15 0-7.515 3.364-7.515 7.515s3.365 7.515 7.515 7.515z" fill="#ffffff" data-original="#000000" style=""/></g></g></svg>
